<svg width="1100" height="760" viewBox="0 0 1100 760" fill="none" xmlns="http://www.w3.org/2000/svg">
  <rect width="1100" height="760" rx="46" fill="#0F172A"></rect>
  <rect x="34" y="34" width="1032" height="692" rx="34" fill="#F8FAFC"></rect>
  <rect x="66" y="64" width="968" height="76" rx="24" fill="white"></rect>
  <circle cx="110" cy="102" r="24" fill="#0F2A5F"></circle>
  <path d="M113 81L92 111H109L103 126L128 94H111L113 81Z" fill="#FACC15"></path>
  <text x="150" y="98" fill="#0F172A" font-size="24" font-weight="900" font-family="Arial">Super Gods</text>
  <text x="150" y="124" fill="#64748B" font-size="14" font-weight="700" font-family="Arial">Panel del dueño · Resumen de hoy</text>
  <rect x="850" y="84" width="146" height="36" rx="18" fill="#DCFCE7"></rect>
  <text x="884" y="108" fill="#15803D" font-size="14" font-weight="900" font-family="Arial">EN VIVO</text>

  <rect x="66" y="176" width="225" height="142" rx="28" fill="white"></rect>
  <text x="94" y="216" fill="#64748B" font-size="15" font-weight="900" font-family="Arial">VENTAS DE HOY</text>
  <text x="94" y="268" fill="#0F172A" font-size="42" font-weight="900" font-family="Arial">S/ 820</text>
  <text x="94" y="300" fill="#16A34A" font-size="16" font-weight="800" font-family="Arial">+18% vs ayer</text>

  <rect x="315" y="176" width="225" height="142" rx="28" fill="white"></rect>
  <text x="343" y="216" fill="#64748B" font-size="15" font-weight="900" font-family="Arial">RESERVAS</text>
  <text x="343" y="268" fill="#0F172A" font-size="42" font-weight="900" font-family="Arial">26</text>
  <text x="343" y="300" fill="#2563EB" font-size="16" font-weight="800" font-family="Arial">8 próximas</text>

  <rect x="564" y="176" width="225" height="142" rx="28" fill="white"></rect>
  <text x="592" y="216" fill="#64748B" font-size="15" font-weight="900" font-family="Arial">CAJA</text>
  <text x="592" y="268" fill="#0F172A" font-size="42" font-weight="900" font-family="Arial">S/ 1,240</text>
  <text x="592" y="300" fill="#16A34A" font-size="16" font-weight="800" font-family="Arial">Efectivo + Yape</text>

  <rect x="813" y="176" width="221" height="142" rx="28" fill="white"></rect>
  <text x="841" y="216" fill="#64748B" font-size="15" font-weight="900" font-family="Arial">CLIENTES</text>
  <text x="841" y="268" fill="#0F172A" font-size="42" font-weight="900" font-family="Arial">148</text>
  <text x="841" y="300" fill="#16A34A" font-size="16" font-weight="800" font-family="Arial">12 nuevos</text>

  <rect x="66" y="352" width="470" height="330" rx="34" fill="white"></rect>
  <text x="96" y="400" fill="#0F172A" font-size="24" font-weight="900" font-family="Arial">Agenda de hoy</text>
  <rect x="96" y="430" width="390" height="58" rx="20" fill="#F1F5F9"></rect>
  <text x="122" y="466" fill="#2563EB" font-size="18" font-weight="900" font-family="Arial">10:00</text>
  <text x="200" y="457" fill="#0F172A" font-size="18" font-weight="900" font-family="Arial">Carlos M.</text>
  <text x="200" y="478" fill="#64748B" font-size="13" font-weight="700" font-family="Arial">Fade clásico</text>

  <rect x="96" y="508" width="390" height="58" rx="20" fill="#F1F5F9"></rect>
  <text x="122" y="544" fill="#2563EB" font-size="18" font-weight="900" font-family="Arial">11:30</text>
  <text x="200" y="535" fill="#0F172A" font-size="18" font-weight="900" font-family="Arial">Luis A.</text>
  <text x="200" y="556" fill="#64748B" font-size="13" font-weight="700" font-family="Arial">Corte + barba</text>

  <rect x="96" y="586" width="390" height="58" rx="20" fill="#F1F5F9"></rect>
  <text x="122" y="622" fill="#2563EB" font-size="18" font-weight="900" font-family="Arial">12:15</text>
  <text x="200" y="613" fill="#0F172A" font-size="18" font-weight="900" font-family="Arial">Miguel R.</text>
  <text x="200" y="634" fill="#64748B" font-size="13" font-weight="700" font-family="Arial">Ondulación</text>

  <rect x="570" y="352" width="464" height="330" rx="34" fill="white"></rect>
  <text x="600" y="400" fill="#0F172A" font-size="24" font-weight="900" font-family="Arial">Ingresos vs gastos</text>
  <rect x="615" y="602" width="54" height="42" rx="12" fill="#DBEAFE"></rect>
  <rect x="695" y="544" width="54" height="100" rx="12" fill="#BFDBFE"></rect>
  <rect x="775" y="482" width="54" height="162" rx="12" fill="#60A5FA"></rect>
  <rect x="855" y="430" width="54" height="214" rx="12" fill="#2563EB"></rect>
  <rect x="935" y="514" width="54" height="130" rx="12" fill="#93C5FD"></rect>
  <line x1="600" y1="644" x2="1004" y2="644" stroke="#CBD5E1" stroke-width="4" stroke-linecap="round"></line>
</svg>