<svg xmlns="http://www.w3.org/2000/svg" width="1080" height="1080" viewBox="0 0 1080 1080"><defs>
    <linearGradient id="bg" x1="0" y1="0" x2="1" y2="1"><stop offset="0" stop-color="#F8FBFF"/><stop offset="0.58" stop-color="#EEF4FF"/><stop offset="1" stop-color="#FFF7E3"/></linearGradient>
    <linearGradient id="hero" x1="0" y1="0" x2="1" y2="1"><stop offset="0" stop-color="#071022"/><stop offset="0.55" stop-color="#0F2A5F"/><stop offset="1" stop-color="#1346A8"/></linearGradient>
    <linearGradient id="cardBlue" x1="0" y1="0" x2="1" y2="1"><stop offset="0" stop-color="#102C67"/><stop offset="1" stop-color="#071022"/></linearGradient>
    <filter id="shadow" x="-20%" y="-20%" width="140%" height="140%"><feDropShadow dx="0" dy="18" stdDeviation="18" flood-color="#10213D" flood-opacity="0.16"/></filter>
  </defs><rect width="1080" height="1080" fill="url(#bg)"/><g transform="translate(68 68)">
    <rect width="944" height="944" rx="64" fill="url(#hero)" stroke="#31579F" stroke-width="2" filter="url(#shadow)"/>
    <g transform="translate(50 50) scale(1.1)"><rect width="64" height="64" rx="18" fill="#071022"/><text x="32" y="40" text-anchor="middle" font-family="Montserrat, Arial, sans-serif" font-size="24" font-weight="900" fill="#FFC21A">SG</text></g>
    <text x="138" y="78" font-family="Montserrat, Arial, sans-serif" font-size="22" font-weight="900" letter-spacing="6" fill="#FFC21A">SUPER GODS APP</text>
    <rect x="50" y="168" width="191" height="52" rx="26" fill="#FFFFFF" fill-opacity="0.18"/>
    <text x="76" y="203" font-family="Montserrat, Arial, sans-serif" font-size="22" font-weight="900" fill="#FFFFFF">Recomendado</text>
    <text x="50" y="326" font-family="Montserrat, Arial, sans-serif" font-size="84" font-weight="900" fill="#FFFFFF">Growth</text>
    <text x="50" y="438" font-family="Montserrat, Arial, sans-serif" font-size="74" font-weight="900" fill="#FFFFFF">S/ 99.90</text>
    <text x="50" y="486" font-family="Montserrat, Arial, sans-serif" font-size="28" font-weight="800" fill="#D7E5FF">/ mes</text>
    <text x="50" y="574" font-family="Inter, Arial, sans-serif" font-size="32" font-weight="800" fill="#FFFFFF">2 sedes, reportes, promociones e IA</text>
    <circle cx="72" cy="694" r="10" fill="#FFFFFF"/><path d="M68 694l3 3 6-7" fill="none" stroke="#fff" stroke-width="2.2" stroke-linecap="round" stroke-linejoin="round"/><text x="110" y="704" font-family="Montserrat, Arial, sans-serif" font-size="30" font-weight="900" fill="#FFFFFF">10 profesionales</text>
    <circle cx="72" cy="770" r="10" fill="#FFFFFF"/><path d="M68 770l3 3 6-7" fill="none" stroke="#fff" stroke-width="2.2" stroke-linecap="round" stroke-linejoin="round"/><text x="110" y="780" font-family="Montserrat, Arial, sans-serif" font-size="30" font-weight="900" fill="#FFFFFF">3 admins</text>
    <rect x="50" y="848" width="844" height="84" rx="28" fill="#FFFFFF"/>
    <text x="472" y="902" text-anchor="middle" font-family="Montserrat, Arial, sans-serif" font-size="29" font-weight="900" fill="#113B8F">Probar gratis 7 días</text>
  </g><text x="890" y="146" text-anchor="end" font-family="Montserrat, Arial, sans-serif" font-size="22" font-weight="900" fill="#FFFFFF">Perú · PEN</text></svg>