<svg xmlns="http://www.w3.org/2000/svg" width="1080" height="1920" viewBox="0 0 1080 1920"><defs>
    <linearGradient id="bg" x1="0" y1="0" x2="1" y2="1"><stop offset="0" stop-color="#F8FBFF"/><stop offset="0.58" stop-color="#EEF4FF"/><stop offset="1" stop-color="#FFF7E3"/></linearGradient>
    <linearGradient id="hero" x1="0" y1="0" x2="1" y2="1"><stop offset="0" stop-color="#071022"/><stop offset="0.55" stop-color="#0F2A5F"/><stop offset="1" stop-color="#1346A8"/></linearGradient>
    <linearGradient id="cardBlue" x1="0" y1="0" x2="1" y2="1"><stop offset="0" stop-color="#102C67"/><stop offset="1" stop-color="#071022"/></linearGradient>
    <filter id="shadow" x="-20%" y="-20%" width="140%" height="140%"><feDropShadow dx="0" dy="18" stdDeviation="18" flood-color="#10213D" flood-opacity="0.16"/></filter>
  </defs>
    <rect width="1080" height="1920" fill="url(#bg)"/>
    <rect x="50" y="54" width="980" height="324" rx="52" fill="url(#hero)" filter="url(#shadow)"/>
    <g transform="translate(96 108) scale(1.25)"><rect width="64" height="64" rx="18" fill="#071022"/><text x="32" y="40" text-anchor="middle" font-family="Montserrat, Arial, sans-serif" font-size="24" font-weight="900" fill="#FFC21A">SG</text></g>
    <text x="194" y="136" font-family="Montserrat, Arial, sans-serif" font-size="24" font-weight="900" letter-spacing="7" fill="#FFC21A">SUPER GODS APP</text>
    <text x="96" y="230" font-family="Montserrat, Arial, sans-serif" font-size="72" font-weight="900" fill="#FFFFFF">Elige tu plan</text>
    <text x="96" y="292" font-family="Inter, Arial, sans-serif" font-size="30" font-weight="700" fill="#DDE8FF">Planes claros para negocios de belleza y barberías.</text>
    <rect x="784" y="118" width="176" height="52" rx="26" fill="#00A86B"/>
    <text x="872" y="152" text-anchor="middle" font-family="Montserrat, Arial, sans-serif" font-size="19" font-weight="900" fill="#FFFFFF">Perú · PEN</text>
    <g filter="url(#shadow)">
      <g transform="translate(70 454)">
    <rect width="940" height="310" rx="30" fill="#FFFFFF" stroke="#DDE6F3" stroke-width="2"/>
    <rect x="28" y="26" width="104" height="38" rx="19" fill="#EEF5FF" fill-opacity="1"/>
    <text x="48" y="51" font-family="Montserrat, Arial, sans-serif" font-size="17" font-weight="900" fill="#0B46D8">1 sede</text>
    <text x="28" y="112" font-family="Montserrat, Arial, sans-serif" font-size="38" font-weight="900" fill="#020617">Starter</text>
    <text x="28" y="176" font-family="Montserrat, Arial, sans-serif" font-size="43" font-weight="900" fill="#020617">S/ 49.90</text>
    <text x="28" y="207" font-family="Montserrat, Arial, sans-serif" font-size="18" font-weight="800" fill="#536179">/ mes</text>
    <text x="28" y="256" font-family="Inter, Arial, sans-serif" font-size="18" font-weight="700" fill="#536179">Agenda, caja, clientes y puntos</text>
    <circle cx="40" cy="206" r="10" fill="#00A86B"/><path d="M36 206l3 3 6-7" fill="none" stroke="#fff" stroke-width="2.2" stroke-linecap="round" stroke-linejoin="round"/><text x="62" y="212" font-family="Montserrat, Arial, sans-serif" font-size="18" font-weight="900" fill="#020617">5 profesionales</text>
    <circle cx="40" cy="248" r="10" fill="#00A86B"/><path d="M36 248l3 3 6-7" fill="none" stroke="#fff" stroke-width="2.2" stroke-linecap="round" stroke-linejoin="round"/><text x="62" y="254" font-family="Montserrat, Arial, sans-serif" font-size="18" font-weight="900" fill="#020617">1 admin</text>
    <rect x="750" y="230" width="158" height="52" rx="17" fill="#071022"/>
    <text x="829" y="263" text-anchor="middle" font-family="Montserrat, Arial, sans-serif" font-size="18" font-weight="900" fill="#FFFFFF">Probar</text>
  </g>
      <g transform="translate(70 808)">
    <rect width="940" height="310" rx="30" fill="url(#cardBlue)" stroke="#31579F" stroke-width="2"/>
    <rect x="28" y="26" width="152" height="38" rx="19" fill="#FFFFFF" fill-opacity="0.18"/>
    <text x="48" y="51" font-family="Montserrat, Arial, sans-serif" font-size="17" font-weight="900" fill="#FFFFFF">Recomendado</text>
    <text x="28" y="112" font-family="Montserrat, Arial, sans-serif" font-size="38" font-weight="900" fill="#FFFFFF">Growth</text>
    <text x="28" y="176" font-family="Montserrat, Arial, sans-serif" font-size="43" font-weight="900" fill="#FFFFFF">S/ 99.90</text>
    <text x="28" y="207" font-family="Montserrat, Arial, sans-serif" font-size="18" font-weight="800" fill="#D7E5FF">/ mes</text>
    <text x="28" y="256" font-family="Inter, Arial, sans-serif" font-size="18" font-weight="700" fill="#D7E5FF">2 sedes, reportes, promociones e IA</text>
    <circle cx="40" cy="206" r="10" fill="#FFFFFF"/><path d="M36 206l3 3 6-7" fill="none" stroke="#fff" stroke-width="2.2" stroke-linecap="round" stroke-linejoin="round"/><text x="62" y="212" font-family="Montserrat, Arial, sans-serif" font-size="18" font-weight="900" fill="#FFFFFF">10 profesionales</text>
    <circle cx="40" cy="248" r="10" fill="#FFFFFF"/><path d="M36 248l3 3 6-7" fill="none" stroke="#fff" stroke-width="2.2" stroke-linecap="round" stroke-linejoin="round"/><text x="62" y="254" font-family="Montserrat, Arial, sans-serif" font-size="18" font-weight="900" fill="#FFFFFF">3 admins</text>
    <rect x="750" y="230" width="158" height="52" rx="17" fill="#FFFFFF"/>
    <text x="829" y="263" text-anchor="middle" font-family="Montserrat, Arial, sans-serif" font-size="18" font-weight="900" fill="#113B8F">Probar</text>
  </g>
      <g transform="translate(70 1162)">
    <rect width="940" height="310" rx="30" fill="#FFFFFF" stroke="#DDE6F3" stroke-width="2"/>
    <rect x="28" y="26" width="142" height="38" rx="19" fill="#EEF5FF" fill-opacity="1"/>
    <text x="48" y="51" font-family="Montserrat, Arial, sans-serif" font-size="17" font-weight="900" fill="#0B46D8">Multi sede</text>
    <text x="28" y="112" font-family="Montserrat, Arial, sans-serif" font-size="38" font-weight="900" fill="#020617">Pro</text>
    <text x="28" y="176" font-family="Montserrat, Arial, sans-serif" font-size="43" font-weight="900" fill="#020617">S/ 149.90</text>
    <text x="28" y="207" font-family="Montserrat, Arial, sans-serif" font-size="18" font-weight="800" fill="#536179">/ mes</text>
    <text x="28" y="256" font-family="Inter, Arial, sans-serif" font-size="18" font-weight="700" fill="#536179">3 sedes, inventario y reportes avanzados</text>
    <circle cx="40" cy="206" r="10" fill="#00A86B"/><path d="M36 206l3 3 6-7" fill="none" stroke="#fff" stroke-width="2.2" stroke-linecap="round" stroke-linejoin="round"/><text x="62" y="212" font-family="Montserrat, Arial, sans-serif" font-size="18" font-weight="900" fill="#020617">18 profesionales</text>
    <circle cx="40" cy="248" r="10" fill="#00A86B"/><path d="M36 248l3 3 6-7" fill="none" stroke="#fff" stroke-width="2.2" stroke-linecap="round" stroke-linejoin="round"/><text x="62" y="254" font-family="Montserrat, Arial, sans-serif" font-size="18" font-weight="900" fill="#020617">6 admins</text>
    <rect x="750" y="230" width="158" height="52" rx="17" fill="#071022"/>
    <text x="829" y="263" text-anchor="middle" font-family="Montserrat, Arial, sans-serif" font-size="18" font-weight="900" fill="#FFFFFF">Probar</text>
  </g>
      <g transform="translate(70 1516)">
    <rect width="940" height="310" rx="30" fill="#FFFFFF" stroke="#DDE6F3" stroke-width="2"/>
    <rect x="28" y="26" width="112" height="38" rx="19" fill="#EEF5FF" fill-opacity="1"/>
    <text x="48" y="51" font-family="Montserrat, Arial, sans-serif" font-size="17" font-weight="900" fill="#0B46D8">Cadenas</text>
    <text x="28" y="112" font-family="Montserrat, Arial, sans-serif" font-size="38" font-weight="900" fill="#020617">Enterprise</text>
    <text x="28" y="176" font-family="Montserrat, Arial, sans-serif" font-size="43" font-weight="900" fill="#020617">Desde S/ 299.90</text>
    <text x="28" y="207" font-family="Montserrat, Arial, sans-serif" font-size="18" font-weight="800" fill="#536179">/ mes</text>
    <text x="28" y="256" font-family="Inter, Arial, sans-serif" font-size="18" font-weight="700" fill="#536179">Onboarding y soporte prioritario</text>
    <circle cx="40" cy="206" r="10" fill="#00A86B"/><path d="M36 206l3 3 6-7" fill="none" stroke="#fff" stroke-width="2.2" stroke-linecap="round" stroke-linejoin="round"/><text x="62" y="212" font-family="Montserrat, Arial, sans-serif" font-size="18" font-weight="900" fill="#020617">Sedes ilimitadas</text>
    <circle cx="40" cy="248" r="10" fill="#00A86B"/><path d="M36 248l3 3 6-7" fill="none" stroke="#fff" stroke-width="2.2" stroke-linecap="round" stroke-linejoin="round"/><text x="62" y="254" font-family="Montserrat, Arial, sans-serif" font-size="18" font-weight="900" fill="#020617">Equipo ilimitado</text>
    <rect x="750" y="230" width="158" height="52" rx="17" fill="#071022"/>
    <text x="829" y="263" text-anchor="middle" font-family="Montserrat, Arial, sans-serif" font-size="18" font-weight="900" fill="#FFFFFF">Probar</text>
  </g>
    </g>
    <text x="540" y="1870" text-anchor="middle" font-family="Montserrat, Arial, sans-serif" font-size="28" font-weight="900" fill="#071022">Prueba gratis 7 días · Super Gods App</text>
  </svg>